<?xml version="1.0" encoding="UTF-8"?>
<svg width="872px" height="133px" viewBox="0 0 872 133" version="1.1" xmlns="http://www.w3.org/2000/svg" xmlns:xlink="http://www.w3.org/1999/xlink">
    <!-- Generator: Sketch 64 (93537) - https://sketch.com -->
    <title>Watergenics.sketch</title>
    <desc>Created with Sketch.</desc>
    <g id="Page-1" stroke="none" stroke-width="1" fill="none" fill-rule="evenodd">
        <path d="M10.32,25.92 C11.12,24.24 11.88,22.86 12.6,21.78 C13.32,20.7 14.06,19.84 14.82,19.2 C15.58,18.56 16.4,18.12 17.28,17.88 C18.16,17.64 19.16,17.52 20.28,17.52 C21.32,17.52 22.96,17.88 25.2,18.6 C27.44,19.32 29.82,20.1 32.34,20.94 C34.86,21.78 37.3,22.56 39.66,23.28 C42.02,24 43.88,24.36 45.24,24.36 C47.56,24.36 49.7,24.04 51.66,23.4 C53.62,22.76 55.44,21.74 57.12,20.34 C58.8,18.94 60.42,17.1 61.98,14.82 C63.54,12.54 65.12,9.72 66.72,6.36 L66.72,6.36 L56.88,0.6 C56.08,1.96 55.34,3.1 54.66,4.02 C53.98,4.94 53.26,5.66 52.5,6.18 C51.74,6.7 50.92,7.06 50.04,7.26 C49.16,7.46 48.16,7.56 47.04,7.56 C45.76,7.56 43.98,7.22 41.7,6.54 C39.42,5.86 37.02,5.1 34.5,4.26 C31.98,3.42 29.52,2.64 27.12,1.92 C24.72,1.2 22.76,0.84 21.24,0.84 C17.08,0.84 13.56,1.9 10.68,4.02 C7.8,6.14 5.4,9.32 3.48,13.56 L3.48,13.56 L0.72,19.56 L10.32,25.92 Z M129.96,102 L147.72,49.56 L165.48,102 L189.48,102 L216.48,11.52 L191.88,11.52 L176.28,69.96 L157.08,11.52 L138.36,11.52 L119.16,69.96 L103.56,11.52 L78.96,11.52 L105.96,102 L129.96,102 Z M248.52,103.92 C256.44,103.92 262.72,101 267.36,95.16 L267.36,95.16 L267.36,102 L289.2,102 L289.2,40.44 L267.36,40.44 L267.36,46.56 C262.32,41.2 255.96,38.52 248.28,38.52 C243.72,38.52 239.56,39.38 235.8,41.1 C232.04,42.82 228.8,45.16 226.08,48.12 C223.36,51.08 221.24,54.54 219.72,58.5 C218.2,62.46 217.44,66.64 217.44,71.04 C217.44,75.76 218.22,80.12 219.78,84.12 C221.34,88.12 223.52,91.6 226.32,94.56 C229.12,97.52 232.4,99.82 236.16,101.46 C239.92,103.1 244.04,103.92 248.52,103.92 Z M254.04,85.2 C252.04,85.2 250.18,84.84 248.46,84.12 C246.74,83.4 245.26,82.4 244.02,81.12 C242.78,79.84 241.8,78.34 241.08,76.62 C240.36,74.9 240,73.04 240,71.04 C240,69.12 240.36,67.34 241.08,65.7 C241.8,64.06 242.78,62.6 244.02,61.32 C245.26,60.04 246.74,59.04 248.46,58.32 C250.18,57.6 252.04,57.24 254.04,57.24 C255.96,57.24 257.78,57.6 259.5,58.32 C261.22,59.04 262.7,60.04 263.94,61.32 C265.18,62.6 266.18,64.1 266.94,65.82 C267.7,67.54 268.08,69.36 268.08,71.28 C268.08,73.2 267.7,75 266.94,76.68 C266.18,78.36 265.18,79.84 263.94,81.12 C262.7,82.4 261.22,83.4 259.5,84.12 C257.78,84.84 255.96,85.2 254.04,85.2 Z M328.2,102 L328.2,58.56 L340.56,58.56 L340.56,40.44 L328.2,40.44 L328.2,21.96 L306.48,21.96 L306.48,40.44 L299.28,40.44 L299.28,58.56 L306.48,58.56 L306.48,102 L328.2,102 Z M382.56,104.28 C399.52,104.28 410.12,97.24 414.36,83.16 L414.36,83.16 L393.36,83.16 C390.96,87 387.4,88.92 382.68,88.92 C373.88,88.92 369.48,84.24 369.48,74.88 L369.48,74.88 L415.2,74.88 L415.2,72.6 C415.2,67.24 414.44,62.42 412.92,58.14 C411.4,53.86 409.2,50.24 406.32,47.28 C403.44,44.32 399.92,42.06 395.76,40.5 C391.6,38.94 386.92,38.16 381.72,38.16 C376.44,38.16 371.7,38.94 367.5,40.5 C363.3,42.06 359.72,44.28 356.76,47.16 C353.8,50.04 351.52,53.54 349.92,57.66 C348.32,61.78 347.52,66.4 347.52,71.52 C347.52,76.48 348.36,80.96 350.04,84.96 C351.72,88.96 354.1,92.4 357.18,95.28 C360.26,98.16 363.96,100.38 368.28,101.94 C372.6,103.5 377.36,104.28 382.56,104.28 Z M394.92,62.28 L370.08,62.28 C370.64,59.08 371.98,56.6 374.1,54.84 C376.22,53.08 378.96,52.2 382.32,52.2 C385.52,52.2 388.24,53.12 390.48,54.96 C392.72,56.8 394.2,59.24 394.92,62.28 L394.92,62.28 Z M449.28,102 L449.28,75.6 C449.28,69.84 450.54,65.46 453.06,62.46 C455.58,59.46 459.36,57.96 464.4,57.96 C467.76,57.96 470.88,58.68 473.76,60.12 L473.76,60.12 L473.76,39.36 C472.88,39.2 472.1,39.12 471.42,39.12 L471.42,39.12 L469.56,39.12 C465.08,39.12 461.16,40.1 457.8,42.06 C454.44,44.02 451.6,46.84 449.28,50.52 L449.28,50.52 L449.28,40.44 L427.56,40.44 L427.56,102 L449.28,102 Z M517.2,132.96 C521.44,132.96 525.38,132.48 529.02,131.52 C532.66,130.56 535.92,129.24 538.8,127.56 C541.68,125.88 544.14,123.9 546.18,121.62 C548.22,119.34 549.72,116.88 550.68,114.24 C551.4,112.16 551.96,109.76 552.36,107.04 C552.76,104.32 552.96,101.24 552.96,97.8 L552.96,97.8 L552.96,40.44 L531.24,40.44 L531.24,46.92 C526.28,41.48 520.16,38.76 512.88,38.76 C508.4,38.76 504.26,39.62 500.46,41.34 C496.66,43.06 493.38,45.42 490.62,48.42 C487.86,51.42 485.68,54.94 484.08,58.98 C482.48,63.02 481.68,67.4 481.68,72.12 C481.68,76.76 482.42,80.98 483.9,84.78 C485.38,88.58 487.46,91.84 490.14,94.56 C492.82,97.28 496,99.4 499.68,100.92 C503.36,102.44 507.4,103.2 511.8,103.2 C513.8,103.2 515.64,103.06 517.32,102.78 C519,102.5 520.6,102.04 522.12,101.4 C523.64,100.76 525.14,99.94 526.62,98.94 C528.1,97.94 529.64,96.68 531.24,95.16 L531.24,95.16 L531.24,101.04 C531.24,105.6 530.02,109.16 527.58,111.72 C525.14,114.28 521.64,115.56 517.08,115.56 C511.72,115.56 508.28,113.52 506.76,109.44 L506.76,109.44 L482.28,109.44 C482.92,112.8 484.2,115.9 486.12,118.74 C488.04,121.58 490.5,124.06 493.5,126.18 C496.5,128.3 500,129.96 504,131.16 C508,132.36 512.4,132.96 517.2,132.96 Z M518.28,85.08 C516.28,85.08 514.42,84.72 512.7,84 C510.98,83.28 509.5,82.28 508.26,81 C507.02,79.72 506.04,78.22 505.32,76.5 C504.6,74.78 504.24,72.92 504.24,70.92 C504.24,69 504.62,67.2 505.38,65.52 C506.14,63.84 507.16,62.38 508.44,61.14 C509.72,59.9 511.2,58.9 512.88,58.14 C514.56,57.38 516.36,57 518.28,57 C520.12,57 521.9,57.36 523.62,58.08 C525.34,58.8 526.84,59.8 528.12,61.08 C529.4,62.36 530.42,63.84 531.18,65.52 C531.94,67.2 532.32,69.04 532.32,71.04 C532.32,72.96 531.94,74.78 531.18,76.5 C530.42,78.22 529.42,79.72 528.18,81 C526.94,82.28 525.46,83.28 523.74,84 C522.02,84.72 520.2,85.08 518.28,85.08 Z M601.8,104.28 C618.76,104.28 629.36,97.24 633.6,83.16 L633.6,83.16 L612.6,83.16 C610.2,87 606.64,88.92 601.92,88.92 C593.12,88.92 588.72,84.24 588.72,74.88 L588.72,74.88 L634.44,74.88 L634.44,72.6 C634.44,67.24 633.68,62.42 632.16,58.14 C630.64,53.86 628.44,50.24 625.56,47.28 C622.68,44.32 619.16,42.06 615,40.5 C610.84,38.94 606.16,38.16 600.96,38.16 C595.68,38.16 590.94,38.94 586.74,40.5 C582.54,42.06 578.96,44.28 576,47.16 C573.04,50.04 570.76,53.54 569.16,57.66 C567.56,61.78 566.76,66.4 566.76,71.52 C566.76,76.48 567.6,80.96 569.28,84.96 C570.96,88.96 573.34,92.4 576.42,95.28 C579.5,98.16 583.2,100.38 587.52,101.94 C591.84,103.5 596.6,104.28 601.8,104.28 Z M614.16,62.28 L589.32,62.28 C589.88,59.08 591.22,56.6 593.34,54.84 C595.46,53.08 598.2,52.2 601.56,52.2 C604.76,52.2 607.48,53.12 609.72,54.96 C611.96,56.8 613.44,59.24 614.16,62.28 L614.16,62.28 Z M668.52,102 L668.52,69.12 C668.52,65.04 669.5,61.9 671.46,59.7 C673.42,57.5 676.24,56.4 679.92,56.4 C681.28,56.4 682.56,56.6 683.76,57 C684.96,57.4 686.04,58.08 687,59.04 C688.12,60.16 688.9,61.66 689.34,63.54 C689.78,65.42 690,67.88 690,70.92 L690,70.92 L690,102 L711.72,102 L711.72,62.88 C711.72,59.6 711.4,56.68 710.76,54.12 C710.12,51.56 708.92,49.24 707.16,47.16 C705,44.6 702.38,42.62 699.3,41.22 C696.22,39.82 692.52,39.12 688.2,39.12 C684.12,39.12 680.56,39.74 677.52,40.98 C674.48,42.22 671.48,44.64 668.52,48.24 L668.52,48.24 L668.52,40.44 L646.8,40.44 L646.8,102 L668.52,102 Z M737.28,29.04 C738.96,29.04 740.54,28.72 742.02,28.08 C743.5,27.44 744.8,26.56 745.92,25.44 C747.04,24.32 747.92,23.02 748.56,21.54 C749.2,20.06 749.52,18.48 749.52,16.8 C749.52,15.12 749.2,13.54 748.56,12.06 C747.92,10.58 747.04,9.28 745.92,8.16 C744.8,7.04 743.5,6.16 742.02,5.52 C740.54,4.88 738.96,4.56 737.28,4.56 C735.6,4.56 734.02,4.88 732.54,5.52 C731.06,6.16 729.76,7.04 728.64,8.16 C727.52,9.28 726.64,10.58 726,12.06 C725.36,13.54 725.04,15.12 725.04,16.8 C725.04,18.48 725.36,20.06 726,21.54 C726.64,23.02 727.52,24.32 728.64,25.44 C729.76,26.56 731.06,27.44 732.54,28.08 C734.02,28.72 735.6,29.04 737.28,29.04 Z M748.2,102 L748.2,40.44 L726.48,40.44 L726.48,102 L748.2,102 Z M794.28,103.92 C799.08,103.92 804.16,102.76 809.52,100.44 L809.52,100.44 L809.52,81.96 C806,84.76 802.2,86.16 798.12,86.16 C796.04,86.16 794.08,85.8 792.24,85.08 C790.4,84.36 788.82,83.34 787.5,82.02 C786.18,80.7 785.14,79.14 784.38,77.34 C783.62,75.54 783.24,73.56 783.24,71.4 C783.24,69.16 783.62,67.14 784.38,65.34 C785.14,63.54 786.2,61.98 787.56,60.66 C788.92,59.34 790.5,58.32 792.3,57.6 C794.1,56.88 796.04,56.52 798.12,56.52 C801.96,56.52 805.76,57.8 809.52,60.36 L809.52,60.36 L809.52,41.88 C805.04,39.64 800.16,38.52 794.88,38.52 C790.08,38.52 785.58,39.34 781.38,40.98 C777.18,42.62 773.56,44.9 770.52,47.82 C767.48,50.74 765.08,54.22 763.32,58.26 C761.56,62.3 760.68,66.76 760.68,71.64 C760.68,76.52 761.6,80.94 763.44,84.9 C765.28,88.86 767.74,92.26 770.82,95.1 C773.9,97.94 777.46,100.12 781.5,101.64 C785.54,103.16 789.8,103.92 794.28,103.92 Z M842.64,104.28 C846.96,104.28 850.92,103.74 854.52,102.66 C858.12,101.58 861.2,100.06 863.76,98.1 C866.32,96.14 868.32,93.72 869.76,90.84 C871.2,87.96 871.92,84.72 871.92,81.12 C871.92,76.32 870.44,72.38 867.48,69.3 C864.52,66.22 860.04,64.08 854.04,62.88 C851.88,62.4 850.14,62 848.82,61.68 C847.5,61.36 846.5,61 845.82,60.6 C845.14,60.2 844.7,59.78 844.5,59.34 C844.3,58.9 844.2,58.32 844.2,57.6 C844.2,56.24 844.82,55.16 846.06,54.36 C847.3,53.56 848.92,53.16 850.92,53.16 C854.76,53.16 858.68,54.2 862.68,56.28 L862.68,56.28 L870,42.12 C863.6,39.48 857,38.16 850.2,38.16 C846.04,38.16 842.26,38.68 838.86,39.72 C835.46,40.76 832.56,42.24 830.16,44.16 C827.76,46.08 825.92,48.42 824.64,51.18 C823.36,53.94 822.72,57.04 822.72,60.48 C822.72,65.2 824.06,68.9 826.74,71.58 C829.42,74.26 834.12,76.28 840.84,77.64 C842.84,78.04 844.46,78.42 845.7,78.78 C846.94,79.14 847.88,79.54 848.52,79.98 C849.16,80.42 849.58,80.9 849.78,81.42 C849.98,81.94 850.08,82.6 850.08,83.4 C850.08,84.76 849.44,85.88 848.16,86.76 C846.88,87.64 845.24,88.08 843.24,88.08 C837.8,88.08 832.04,86 825.96,81.84 L825.96,81.84 L818.04,97.2 C826.12,101.92 834.32,104.28 842.64,104.28 Z" id="~Watergenics" fill="#000000" fill-rule="nonzero"></path>
    </g>
</svg>
