<svg height="464pt" viewBox="0 -52 464 464" width="464pt" xmlns="http://www.w3.org/2000/svg"><path d="m0 24h64v96h-64zm0 0" fill="#cfdfe8"/><path d="m80 0h32c8.835938 0 16 7.164062 16 16v112c0 8.835938-7.164062 16-16 16h-32c-8.835938 0-16-7.164062-16-16v-112c0-8.835938 7.164062-16 16-16zm0 0" fill="#7e8a96"/><path d="m128 40s272-32 272 176h-208s16-112-64-112zm0 0" fill="#32b1cc"/><g fill="#195c85"><path d="m368 226.558594c-4.171875.015625-7.652344-3.175782-8-7.335938-7.433594-89.238281-71.839844-112.152344-74.574219-113.078125-4.199219-1.402343-6.464843-5.941406-5.0625-10.140625 1.402344-4.199218 5.941407-6.460937 10.140625-5.058594 3.144532 1.046876 77.105469 26.824219 85.449219 126.925782.363281 4.402344-2.910156 8.269531-7.3125 8.632812-.210937.03125-.425781.046875-.640625.054688zm0 0"/><path d="m232 226.558594c-.539062 0-1.074219-.054688-1.601562-.160156-4.328126-.867188-7.132813-5.078126-6.269532-9.40625 4.285156-22.523438 1.734375-45.8125-7.328125-66.871094-1.972656-3.957032-.363281-8.761719 3.59375-10.734375 3.957031-1.96875 8.761719-.359375 10.734375 3.597656 10.738282 24.214844 13.765625 51.148437 8.679688 77.144531-.746094 3.726563-4.007813 6.414063-7.808594 6.429688zm0 0"/><path d="m272 170.558594c-3.980469-.003906-7.351562-2.929688-7.910156-6.871094-7.152344-50.09375-65.433594-65.222656-66.027344-65.367188-4.253906-1.097656-6.828125-5.425781-5.757812-9.691406 1.066406-4.261718 5.375-6.867187 9.648437-5.828125 2.824219.703125 69.3125 18 77.976563 78.625.625 4.371094-2.410157 8.425781-6.785157 9.054688-.378906.050781-.761719.078125-1.144531.078125zm0 0"/></g><path d="m464 234.558594v-48c-37.351562 0-42.648438 18.882812-80 18.882812s-42.648438-26.882812-80-26.882812-42.726562 26.882812-80.046875 26.882812-37.34375-26.882812-74.679687-26.882812c-37.335938 0-37.320313 26.882812-74.640626 26.882812-37.320312 0-37.320312-18.882812-74.632812-18.882812v50.5625c37.3125 0 37.3125 26.878906 74.632812 26.878906 37.320313 0 37.320313-26.878906 74.640626-26.878906 37.320312 0 37.335937 26.878906 74.679687 26.878906s42.71875-26.878906 80.046875-26.878906 42.648438 26.878906 80 26.878906 42.648438-26.878906 80-26.878906zm0 0" fill="#87cee9"/><path d="m0 330.558594v-48c37.3125 0 37.3125 29.441406 74.632812 29.441406 37.320313 0 37.320313-26.878906 74.640626-26.878906 37.320312 0 37.335937 26.878906 74.679687 26.878906s42.71875-26.878906 80.046875-26.878906 42.648438 26.878906 80 26.878906 42.648438-29.441406 80-29.441406v48c-37.351562 0-42.648438 29.441406-80 29.441406s-42.648438-26.878906-80-26.878906-42.726562 26.878906-80.046875 26.878906-37.34375-26.878906-74.679687-26.878906c-37.335938 0-37.320313 26.878906-74.640626 26.878906-37.320312 0-37.320312-29.441406-74.632812-29.441406zm0 0" fill="#87cee9"/><path d="m32 98.558594c-4.417969 0-8-3.582032-8-8v-32c0-4.417969 3.582031-8 8-8s8 3.582031 8 8v32c0 4.417968-3.582031 8-8 8zm0 0" fill="#5a6470"/></svg>