<svg height="512pt" viewBox="0 0 512 512" width="512pt" xmlns="http://www.w3.org/2000/svg"><path d="m475 205.300781c-5.398438-24.300781-15-47.402343-28.199219-68.402343l18.898438-31.800782-58.796875-58.796875-31.804688 18.898438c-20.996094-13.199219-44.097656-22.800781-68.398437-28.199219l-9-37h-83.398438l-9 37c-24.300781 5.398438-47.402343 15-68.398437 28.199219l-31.804688-18.898438-58.796875 58.796875 18.898438 31.800782c-13.199219 21-22.800781 44.101562-28.199219 68.402343l-37 9v83.398438l37 9c5.398438 24.300781 15 47.398437 28.199219 68.398437l-18.898438 31.800782 58.796875 58.800781 31.804688-18.898438c20.996094 13.199219 44.097656 22.800781 68.398437 28.199219l9 37h83.398438l9-37c24.300781-5.398438 47.402343-15 68.398437-28.199219l31.804688 18.898438 58.796875-58.800781-18.898438-31.800782c13.199219-21 22.800781-44.097656 28.199219-68.398437l37-9v-83.398438zm-219 215.699219c-90.902344 0-165-74.101562-165-165 0-90.902344 74.097656-165 165-165s165 74.097656 165 165c0 90.898438-74.097656 165-165 165zm0 0" fill="#e3eeff"/><path d="m268 166.597656-12-16.199218-12 16.199218c-14.699219 19.5-63 86.402344-63 119.402344 0 41.398438 33.601562 75 75 75s75-33.601562 75-75c0-33-48.300781-99.902344-63-119.402344zm0 0" fill="#b3f2e7"/><path d="m256 361v-210.601562l12 16.199218c14.699219 19.5 63 86.402344 63 119.402344 0 41.398438-33.601562 75-75 75zm0 0" fill="#73e6d3"/><path d="m512 214.300781v83.398438l-37 9c-5.398438 24.300781-15 47.398437-28.199219 68.398437l18.898438 31.800782-58.796875 58.800781-31.804688-18.898438c-20.996094 13.199219-44.097656 22.800781-68.398437 28.199219l-9 37h-41.699219v-91c90.902344 0 165-74.101562 165-165 0-90.902344-74.097656-165-165-165v-91h41.699219l9 37c24.300781 5.398438 47.402343 15 68.398437 28.199219l31.804688-18.898438 58.796875 58.796875-18.898438 31.800782c13.199219 21 22.800781 44.101562 28.199219 68.402343zm0 0" fill="#c4d9f2"/></svg>