<?xml version="1.0" encoding="utf-8"?>
<!-- Generator: Adobe Illustrator 24.1.0, SVG Export Plug-In . SVG Version: 6.00 Build 0)  -->
<svg version="1.0" id="Layer_1" xmlns="http://www.w3.org/2000/svg" xmlns:xlink="http://www.w3.org/1999/xlink" x="0px" y="0px"
	 viewBox="0 0 720 432" style="enable-background:new 0 0 720 432;" xml:space="preserve">
<style type="text/css">
	.st0{fill:#E5EAEF;}
</style>
<g>
	<path class="st0" d="M128.54,112.96c-35.83,0-74.63-9.32-117.51-32.68C0.98,74.8-2.8,62.09,2.6,51.88
		c5.4-10.2,17.92-14.03,27.99-8.55C131.03,98.04,204.47,60.9,277.02,14.49c9.65-6.17,22.41-3.24,28.51,6.56
		c6.09,9.8,3.19,22.74-6.47,28.92C247.68,82.84,192.93,112.96,128.54,112.96z"/>
	<path class="st0" d="M469.38,420.03c-6.77,0-13.4-3.37-17.36-9.57c-6.21-9.72-3.47-22.7,6.1-29
		c39.01-25.66,81.88-51.4,139.07-59.68c11.3-1.63,21.77,6.33,23.38,17.8c1.61,11.46-6.24,22.08-17.54,23.72
		c-48.88,7.08-87.28,30.24-122.43,53.35C477.13,418.93,473.23,420.03,469.38,420.03z"/>
	<path class="st0" d="M297.27,396.98c-8.14,0-15.85-4.91-19.13-13.02c-4.33-10.72,0.72-22.96,11.29-27.35
		c42.14-17.52,78.75-39.98,114.15-61.7c69.27-42.5,134.81-82.7,230.64-82.09c11.42,0.07,20.62,9.51,20.56,21.09
		c-0.07,11.54-9.31,20.85-20.67,20.85c-0.62,0-1.23-0.01-1.85-0.01c-83.35,0-140.82,35.26-207.29,76.05
		c-36.75,22.55-74.76,45.86-119.86,64.62C302.54,396.48,299.89,396.98,297.27,396.98z"/>
	<path class="st0" d="M131.4,431.92c-11.15,0-20.34-9.01-20.64-20.4c-0.31-11.58,8.68-21.22,20.09-21.53
		c34-0.94,65.54-5.13,96.43-12.79c11.05-2.74,22.27,4.14,24.98,15.39c2.71,11.25-4.08,22.6-15.17,25.35
		c-33.77,8.38-68.15,12.95-105.12,13.97C131.79,431.92,131.59,431.92,131.4,431.92z"/>
	<path class="st0" d="M524.88,164.15c-8.94,0-17.18-5.93-19.82-15.08c-3.21-11.11,3.06-22.76,14.02-26.02
		c46.93-13.96,95.76-18.9,149.27-15.12c11.39,0.81,19.98,10.82,19.18,22.38c-0.79,11.55-10.64,20.27-22.05,19.46
		c-48.56-3.43-92.62,0.99-134.77,13.52C528.76,163.88,526.8,164.15,524.88,164.15z"/>
	<path class="st0" d="M125.95,325.46c-9.53,0-19.32-0.32-29.43-0.98c-11.39-0.74-20.03-10.71-19.3-22.27
		c0.74-11.56,10.69-20.31,21.95-19.58c118.83,7.77,190.34-36.54,266.03-83.44c27.53-17.06,56-34.7,86.92-49.77
		c10.3-5.01,22.64-0.62,27.58,9.82c4.94,10.44,0.6,22.97-9.68,27.98c-29.05,14.16-56.62,31.24-83.28,47.76
		C314.87,279.52,240.72,325.46,125.95,325.46z"/>
	<path class="st0" d="M469.38,420.03c-6.77,0-13.4-3.37-17.36-9.57c-6.21-9.72-3.47-22.7,6.1-29
		c39.01-25.66,81.88-51.4,139.07-59.68c11.3-1.63,21.77,6.33,23.38,17.8c1.61,11.46-6.24,22.08-17.54,23.72
		c-48.88,7.08-87.28,30.24-122.43,53.35C477.13,418.93,473.23,420.03,469.38,420.03z"/>
	<path class="st0" d="M699.22,46.41c-0.85,0-1.72-0.05-2.59-0.16c-43.33-5.49-83.23-5.63-122-0.42c-11.3,1.52-21.7-6.56-23.2-18.04
		c-1.5-11.48,6.47-22.02,17.78-23.54c42.3-5.68,85.65-5.56,132.54,0.38c11.32,1.43,19.36,11.91,17.95,23.4
		C718.4,38.64,709.49,46.41,699.22,46.41z"/>
	<path class="st0" d="M129.17,219.25c-22.2,0-45.79-2.56-71.16-8.31c-11.14-2.52-18.16-13.73-15.67-25.03
		c2.49-11.3,13.54-18.42,24.67-15.9c109.61,24.81,181.16-18.51,264.01-68.66c50.39-30.5,102.51-62.04,168.07-81.87
		c10.98-3.31,22.45,3.01,25.71,14.1c3.26,11.1-2.96,22.78-13.9,26.09c-60.63,18.34-110.48,48.52-158.71,77.7
		C283.02,179.24,216.9,219.25,129.17,219.25z"/>
</g>
</svg>
